<?xml version="1.0" encoding="UTF-8" standalone="no"?>
<!-- Created with Inkscape (http://www.inkscape.org/) -->

<svg
   xmlns:dc="http://purl.org/dc/elements/1.1/"
   xmlns:cc="http://creativecommons.org/ns#"
   xmlns:rdf="http://www.w3.org/1999/02/22-rdf-syntax-ns#"
   xmlns:svg="http://www.w3.org/2000/svg"
   xmlns="http://www.w3.org/2000/svg"
   xmlns:sodipodi="http://sodipodi.sourceforge.net/DTD/sodipodi-0.dtd"
   xmlns:inkscape="http://www.inkscape.org/namespaces/inkscape"
   id="svg3061"
   version="1.1"
   inkscape:version="0.48.1 r9760"
   width="42"
   height="15.999158"
   xml:space="preserve"
   sodipodi:docname="cloudbees.svg"
   inkscape:export-filename="/Users/stephenc/src/plugins/cloudbees-registration-plugin/src/main/webapp/images/cloudbees.png"
   inkscape:export-xdpi="90"
   inkscape:export-ydpi="90"><metadata
     id="metadata3067"><rdf:RDF><cc:Work
         rdf:about=""><dc:format>image/svg+xml</dc:format><dc:type
           rdf:resource="http://purl.org/dc/dcmitype/StillImage" /><dc:title></dc:title></cc:Work></rdf:RDF></metadata><defs
     id="defs3065"><clipPath
       clipPathUnits="userSpaceOnUse"
       id="clipPath3075"><path
         d="M 0,792 612,792 612,0 0,0 0,792 z"
         id="path3077"
         inkscape:connector-curvature="0" /></clipPath></defs><sodipodi:namedview
     pagecolor="#ffffff"
     bordercolor="#666666"
     borderopacity="1"
     objecttolerance="10"
     gridtolerance="10"
     guidetolerance="10"
     inkscape:pageopacity="0"
     inkscape:pageshadow="2"
     inkscape:window-width="1004"
     inkscape:window-height="560"
     id="namedview3063"
     showgrid="false"
     fit-margin-top="1"
     fit-margin-left="0"
     fit-margin-right="0"
     fit-margin-bottom="1"
     inkscape:zoom="9.4064483"
     inkscape:cx="20.999999"
     inkscape:cy="7.999579"
     inkscape:window-x="0"
     inkscape:window-y="0"
     inkscape:window-maximized="0"
     inkscape:current-layer="g3069" /><g
     id="g3069"
     inkscape:groupmode="layer"
     inkscape:label="logo_blue"
     transform="matrix(1.25,0,0,-1.25,-369.74001,695.72193)"><g
       id="g3200"
       transform="matrix(0.12126,0,0,0.12126,274.82669,483.46331)"><g
         transform="translate(321.3369,519.1509)"
         id="g3115"><path
           inkscape:connector-curvature="0"
           id="path3117"
           style="fill:#20bdc1;fill-opacity:1;fill-rule:nonzero;stroke:none"
           d="M 0,0 -26.272,-15.152 -52.531,0.024 c 0,0 -0.331,20.243 0.013,27.583 0.866,18.477 13.327,47.771 43.712,49.519 20.777,1.196 39.656,-11.42 39.656,-11.42 0,0 -31.076,7.468 -30.837,-38.123 C 0.086,13.86 0,0 0,0" /></g><g
         transform="translate(252.5083,525.7773)"
         id="g3119"><path
           inkscape:connector-curvature="0"
           id="path3121"
           style="fill:#20bdc1;fill-opacity:1;fill-rule:nonzero;stroke:none"
           d="m 0,0 -18.168,-10.478 -18.158,10.5 c 0,0 0.014,13.139 0.013,18.226 -0.013,13.378 11.833,31.508 30.828,31.508 15.224,0 24.941,-7.53 24.941,-7.53 0,0 -19.335,5.757 -19.452,-24 C -0.034,8.735 0,0 0,0" /></g><g
         transform="translate(373.8994,525.7773)"
         id="g3123"><path
           inkscape:connector-curvature="0"
           id="path3125"
           style="fill:#20bdc1;fill-opacity:1;fill-rule:nonzero;stroke:none"
           d="m 0,0 -18.168,-10.478 -18.158,10.5 c 0,0 0.014,13.139 0.013,18.226 -0.013,13.378 11.834,31.508 30.828,31.508 14.505,0 24.746,-7.399 24.746,-7.399 0,0 -19.423,6.064 -19.257,-24.131 C 0.057,8.735 0,0 0,0" /></g><g
         transform="translate(201.4199,530.2896)"
         id="g3127"><path
           inkscape:connector-curvature="0"
           id="path3129"
           style="fill:#20bdc1;fill-opacity:1;fill-rule:nonzero;stroke:none"
           d="m 0,0 -9.52,-5.486 -9.511,5.502 c 0,0 0.009,5.571 0.009,8.239 -0.009,7.006 6.194,16.502 16.145,16.502 7.743,0 12.286,-3.431 12.286,-3.431 0,0 -9.57,2.348 -9.409,-13.084 C 0.052,3.271 0,0 0,0" /></g><g
         transform="translate(411.3008,528.2896)"
         id="g3131"><path
           inkscape:connector-curvature="0"
           id="path3133"
           style="fill:#20bdc1;fill-opacity:1;fill-rule:nonzero;stroke:none"
           d="m 0,0 -11.25,-6.483 -11.24,6.502 c 0,0 0.008,7.083 0.008,10.236 -0.008,8.279 7.323,19.502 19.083,19.502 8.661,0 13.926,-4.906 13.926,-4.906 0,0 -10.512,3.568 -10.527,-14.612 C -0.005,4.365 0,0 0,0" /></g><g
         transform="translate(435.3408,532.6504)"
         id="g3135"><path
           inkscape:connector-curvature="0"
           id="path3137"
           style="fill:#20bdc1;fill-opacity:1;fill-rule:nonzero;stroke:none"
           d="M 0,0 -5.191,-3.117 -10.38,0 c 0,0 0.004,4.192 0.004,5.646 -0.004,3.822 3.379,9.002 8.808,9.002 4.805,0 6.72,-1.882 6.72,-1.882 0,0 -5.326,0 -5.152,-7.126 C 0.066,2.929 0,0 0,0" /></g></g></g></svg>